<?xml version="1.0" encoding="utf-8"?>
<!-- Generator: Adobe Illustrator 16.0.0, SVG Export Plug-In . SVG Version: 6.00 Build 0)  -->
<!DOCTYPE svg PUBLIC "-//W3C//DTD SVG 1.1//EN" "http://www.w3.org/Graphics/SVG/1.1/DTD/svg11.dtd">
<svg version="1.1" id="Layer_1" xmlns="http://www.w3.org/2000/svg" xmlns:xlink="http://www.w3.org/1999/xlink" x="0px" y="0px"
	 width="200px" height="200px" viewBox="0 0 200 200" enable-background="new 0 0 200 200" xml:space="preserve">
<g>
	<circle fill="#AEA79F" cx="100" cy="100" r="78.754"/>
</g>
<g>
	<path fill="#FFFFFF" d="M54.569,145.799c-0.871,0-1.669-0.477-2.083-1.244c-0.414-0.766-0.374-1.693,0.104-2.423l32.898-50.13
		c0.439-0.669,1.179-1.068,1.979-1.068h25.065c0.801,0,1.54,0.399,1.979,1.068l32.897,50.13c0.478,0.729,0.519,1.658,0.105,2.424
		c-0.415,0.767-1.213,1.243-2.083,1.243H54.569z M113.384,99.26l21.879,41.805h5.784l-27.49-41.905L113.384,99.26z M102.367,141.064
		h27.541L106.15,95.667h-3.783v1.566h-4.733v-1.566h-3.789l-23.758,45.397h27.546v-5.267h4.733V141.064z M58.955,141.064h5.783
		l21.887-41.803l-0.172-0.101L58.955,141.064z"/>
	<rect x="97.634" y="99.467" fill="#FFFFFF" width="4.733" height="6.301"/>
	<rect x="97.634" y="108.967" fill="#FFFFFF" width="4.733" height="7.867"/>
	<rect x="97.634" y="121.265" fill="#FFFFFF" width="4.733" height="9.435"/>
	<path fill="#FFFFFF" d="M100,85.401c-0.701,0-1.363-0.31-1.816-0.849C96,81.936,85.101,68.505,85.101,61.102
		c0-8.215,6.684-14.898,14.899-14.898c8.216,0,14.9,6.684,14.9,14.898c0,7.408-10.898,20.834-13.084,23.45
		C101.365,85.092,100.703,85.401,100,85.401z M100,50.936c-5.598,0.009-10.158,4.57-10.166,10.168
		c0,3.75,5.211,11.783,10.087,18.051L100,79.256l0.079-0.102c4.876-6.271,10.087-14.307,10.087-18.053
		C110.159,55.505,105.599,50.944,100,50.936L100,50.936z"/>
	<path fill="#FFFFFF" d="M100,67.602c-3.896,0-7.066-3.17-7.066-7.066c0-3.896,3.17-7.065,7.066-7.065s7.067,3.17,7.067,7.065
		C107.067,64.432,103.896,67.602,100,67.602z M100,58.202c-1.287,0-2.333,1.047-2.333,2.333c0,1.287,1.047,2.334,2.333,2.334
		c1.286,0,2.332-1.047,2.332-2.334C102.332,59.249,101.286,58.202,100,58.202z"/>
</g>
</svg>
