<?xml version="1.0" encoding="utf-8"?>
<!-- Generator: Adobe Illustrator 16.0.0, SVG Export Plug-In . SVG Version: 6.00 Build 0)  -->
<!DOCTYPE svg PUBLIC "-//W3C//DTD SVG 1.1//EN" "http://www.w3.org/Graphics/SVG/1.1/DTD/svg11.dtd">
<svg version="1.1" id="Layer_1" xmlns="http://www.w3.org/2000/svg" xmlns:xlink="http://www.w3.org/1999/xlink" x="0px" y="0px"
	 width="45px" height="30px" viewBox="0 0 45 30" enable-background="new 0 0 45 30" xml:space="preserve">
<path fill="#1E201D" d="M27.941,27.551c-0.258,0-0.503-0.104-0.688-0.288c-0.374-0.369-0.37-0.982,0.004-1.368l9.949-9.933H5.459
	c-0.527,0-0.953-0.436-0.953-0.971c0-0.534,0.419-0.955,0.953-0.955h31.745l-9.951-9.953c-0.178-0.177-0.277-0.416-0.277-0.673
	c0-0.258,0.1-0.496,0.276-0.675c0.187-0.186,0.432-0.289,0.689-0.289c0.254,0,0.496,0.102,0.673,0.285l11.592,11.595
	c0.188,0.179,0.288,0.418,0.288,0.672c0.004,0.255-0.1,0.495-0.282,0.671L28.617,27.263C28.438,27.451,28.199,27.551,27.941,27.551z
	"/>
</svg>
