<?xml version="1.0" encoding="utf-8"?>
<!-- Generator: Adobe Illustrator 16.0.0, SVG Export Plug-In . SVG Version: 6.00 Build 0)  -->
<!DOCTYPE svg PUBLIC "-//W3C//DTD SVG 1.1//EN" "http://www.w3.org/Graphics/SVG/1.1/DTD/svg11.dtd">
<svg version="1.1" id="Layer_1" xmlns="http://www.w3.org/2000/svg" xmlns:xlink="http://www.w3.org/1999/xlink" x="0px" y="0px"
	 width="30px" height="20px" viewBox="0 0 30 20" enable-background="new 0 0 30 20" xml:space="preserve">
<path fill="#1E201D" d="M18.192,17.362c-0.152,0-0.296-0.06-0.404-0.169c-0.219-0.217-0.218-0.576,0.002-0.802l5.836-5.827H5.004
	c-0.309,0-0.559-0.255-0.559-0.569c0-0.313,0.246-0.56,0.559-0.56h18.621l-5.837-5.838c-0.105-0.104-0.163-0.244-0.163-0.395
	s0.058-0.291,0.162-0.396c0.109-0.109,0.253-0.169,0.404-0.169c0.15,0,0.291,0.059,0.395,0.167l6.8,6.801
	c0.11,0.105,0.169,0.245,0.169,0.394c0.001,0.15-0.059,0.29-0.166,0.394l-6.801,6.8C18.482,17.304,18.343,17.362,18.192,17.362z"/>
</svg>
