<?xml version="1.0" encoding="utf-8"?>
<!-- Generator: Adobe Illustrator 16.0.0, SVG Export Plug-In . SVG Version: 6.00 Build 0)  -->
<!DOCTYPE svg PUBLIC "-//W3C//DTD SVG 1.1//EN" "http://www.w3.org/Graphics/SVG/1.1/DTD/svg11.dtd">
<svg version="1.1" id="Layer_1" xmlns="http://www.w3.org/2000/svg" xmlns:xlink="http://www.w3.org/1999/xlink" x="0px" y="0px"
	 width="18px" height="18px" viewBox="0 0 18 18" enable-background="new 0 0 18 18" xml:space="preserve">
<path fill="#E95420" d="M16.945,10.275V1.618c0-0.292-0.236-0.527-0.527-0.527h-2.672V0.528C13.746,0.236,13.51,0,13.219,0
	s-0.527,0.236-0.527,0.527V1.09h-2.109V0.528C10.582,0.236,10.346,0,10.055,0S9.527,0.236,9.527,0.528V1.09H7.418V0.528
	C7.418,0.236,7.182,0,6.891,0S6.363,0.236,6.363,0.528V1.09H4.254V0.528C4.254,0.236,4.018,0,3.727,0S3.199,0.236,3.199,0.528V1.09
	H0.527C0.236,1.09,0,1.326,0,1.618v13.746c0,0.291,0.236,0.527,0.527,0.527H9.31C10.162,17.162,11.611,18,13.254,18
	C15.871,18,18,15.871,18,13.254C18,12.127,17.604,11.09,16.945,10.275z M3.199,2.145v0.527c0,0.292,0.236,0.527,0.527,0.527
	s0.527-0.236,0.527-0.527V2.145h2.109v0.527c0,0.292,0.236,0.527,0.527,0.527s0.527-0.236,0.527-0.527V2.145h2.109v0.527
	c0,0.292,0.236,0.527,0.527,0.527s0.527-0.236,0.527-0.527V2.145h2.109v0.527c0,0.292,0.236,0.527,0.527,0.527
	s0.527-0.236,0.527-0.527V2.145h2.145v2.109H1.055V2.145H3.199z M1.055,14.836V5.309h14.836V9.31
	c-0.755-0.506-1.662-0.802-2.637-0.802c-1.666,0-3.135,0.863-3.981,2.166c-0.071-0.035-0.152-0.057-0.237-0.057H7.98
	c-0.292,0-0.527,0.236-0.527,0.527s0.236,0.527,0.527,0.527h0.799c-0.119,0.336-0.201,0.689-0.242,1.055H7.98
	c-0.292,0-0.527,0.236-0.527,0.527s0.236,0.527,0.527,0.527h0.557c0.041,0.365,0.123,0.719,0.242,1.055H1.055z M13.254,16.945
	c-2.035,0-3.691-1.656-3.691-3.691s1.656-3.691,3.691-3.691s3.691,1.656,3.691,3.691S15.289,16.945,13.254,16.945z"/>
<path fill="#E95420" d="M15.313,12.91h-1.582v-1.582c0-0.291-0.236-0.527-0.527-0.527s-0.527,0.236-0.527,0.527v2.109
	c0,0.291,0.236,0.527,0.527,0.527h2.109c0.291,0,0.527-0.236,0.527-0.527S15.604,12.91,15.313,12.91z"/>
<path fill="#E95420" d="M4.731,6.583H3.677c-0.292,0-0.527,0.236-0.527,0.527s0.236,0.527,0.527,0.527h1.055
	c0.292,0,0.527-0.236,0.527-0.527S5.023,6.583,4.731,6.583z"/>
<path fill="#E95420" d="M4.731,8.692H3.677c-0.292,0-0.527,0.236-0.527,0.527c0,0.291,0.236,0.527,0.527,0.527h1.055
	c0.292,0,0.527-0.236,0.527-0.527C5.259,8.928,5.023,8.692,4.731,8.692z"/>
<path fill="#E95420" d="M4.731,10.801H3.677c-0.292,0-0.527,0.236-0.527,0.527s0.236,0.527,0.527,0.527h1.055
	c0.292,0,0.527-0.236,0.527-0.527S5.023,10.801,4.731,10.801z"/>
<path fill="#E95420" d="M7.931,7.637h1.055c0.291,0,0.527-0.236,0.527-0.527S9.276,6.583,8.985,6.583H7.931
	c-0.292,0-0.527,0.236-0.527,0.527S7.639,7.637,7.931,7.637z"/>
<path fill="#E95420" d="M7.931,9.746h1.055c0.291,0,0.527-0.236,0.527-0.527c0-0.291-0.236-0.527-0.527-0.527H7.931
	c-0.292,0-0.527,0.236-0.527,0.527C7.403,9.51,7.639,9.746,7.931,9.746z"/>
<path fill="#E95420" d="M4.731,12.91H3.677c-0.292,0-0.527,0.236-0.527,0.527s0.236,0.527,0.527,0.527h1.055
	c0.292,0,0.527-0.236,0.527-0.527S5.023,12.91,4.731,12.91z"/>
<path fill="#E95420" d="M12.149,7.637h1.055c0.291,0,0.527-0.236,0.527-0.527s-0.236-0.527-0.527-0.527h-1.055
	c-0.291,0-0.527,0.236-0.527,0.527S11.858,7.637,12.149,7.637z"/>
</svg>
