<?xml version="1.0" encoding="utf-8"?>
<!-- Generator: Adobe Illustrator 16.0.0, SVG Export Plug-In . SVG Version: 6.00 Build 0)  -->
<!DOCTYPE svg PUBLIC "-//W3C//DTD SVG 1.1//EN" "http://www.w3.org/Graphics/SVG/1.1/DTD/svg11.dtd">
<svg version="1.1" id="Layer_1" xmlns="http://www.w3.org/2000/svg" xmlns:xlink="http://www.w3.org/1999/xlink" x="0px" y="0px"
	 width="20px" height="20px" viewBox="0 0 20 20" enable-background="new 0 0 20 20" xml:space="preserve">
<g>
	<path fill="#E95420" d="M3.161,19.113c-1.277-0.002-2.317-1.042-2.319-2.318V4.972c0.002-1.277,1.042-2.317,2.319-2.318h4.028
		c0.278,0,0.504,0.227,0.504,0.504S7.467,3.661,7.189,3.661H3.161c-0.722,0-1.311,0.588-1.312,1.311v11.823
		c0.001,0.722,0.589,1.31,1.312,1.311h12.729c0.723-0.001,1.311-0.589,1.312-1.311v-4.028c0-0.278,0.227-0.505,0.504-0.505
		c0.276,0,0.502,0.227,0.502,0.505v4.028c-0.001,1.276-1.041,2.316-2.317,2.318l0,0H3.161z"/>
	<path fill="#E95420" d="M6.256,14.298c-0.135,0-0.262-0.053-0.357-0.147C5.77,14.022,5.72,13.834,5.77,13.66l1.064-3.845
		c0.023-0.082,0.068-0.158,0.129-0.221L15.057,1.5c0.396-0.396,0.92-0.612,1.479-0.612s1.083,0.217,1.479,0.612l0.533,0.533
		c0.813,0.815,0.813,2.143,0,2.958l-8.093,8.094c-0.061,0.061-0.137,0.105-0.222,0.13L6.389,14.28
		C6.344,14.292,6.299,14.298,6.256,14.298z M7.001,12.985l2.087-0.5l-1.503-1.607L7.001,12.985z M8.093,9.89l1.994,2.065
		l6.554-6.483l-2.031-2.1L8.093,9.89z M16.535,1.896c-0.289,0-0.561,0.112-0.767,0.316l-0.41,0.411l1.995,2.066l0.481-0.411
		c0.421-0.422,0.421-1.11-0.001-1.533l-0.532-0.533C17.096,2.008,16.824,1.896,16.535,1.896z"/>
</g>
</svg>
