<?xml version="1.0" encoding="utf-8"?>
<!-- Generator: Adobe Illustrator 16.0.0, SVG Export Plug-In . SVG Version: 6.00 Build 0)  -->
<!DOCTYPE svg PUBLIC "-//W3C//DTD SVG 1.1//EN" "http://www.w3.org/Graphics/SVG/1.1/DTD/svg11.dtd">
<svg version="1.1" id="Layer_1" xmlns="http://www.w3.org/2000/svg" xmlns:xlink="http://www.w3.org/1999/xlink" x="0px" y="0px"
	 width="25px" height="25px" viewBox="0 0 25 25" enable-background="new 0 0 25 25" xml:space="preserve">
<g>
	<path fill="#E95420" d="M5.46,24.574c-0.154,0-0.309-0.051-0.435-0.146c-0.231-0.174-0.344-0.459-0.294-0.748l1.27-7.816
		l-5.476-5.457c-0.202-0.198-0.278-0.505-0.191-0.78c0.089-0.279,0.318-0.479,0.598-0.523l7.569-1.166l3.311-7.08
		c0.126-0.268,0.381-0.432,0.665-0.432c0.28,0,0.541,0.167,0.664,0.427l3.408,7.097l7.517,1.077c0.282,0.047,0.514,0.247,0.6,0.522
		c0.089,0.28,0.014,0.587-0.199,0.787l-5.455,5.55l1.327,7.709c0.019,0.053,0.021,0.117,0.021,0.172c0,0.42-0.33,0.764-0.739,0.764
		c-0.119,0-0.234-0.031-0.341-0.086l-6.779-3.67l-6.693,3.713C5.696,24.547,5.581,24.574,5.46,24.574z M9.627,8.974
		c-0.103,0.222-0.31,0.378-0.555,0.42l-6.57,1.011l4.8,4.675c0.172,0.172,0.251,0.424,0.213,0.674l-1.1,6.785l5.765-3.291
		c0.113-0.059,0.234-0.088,0.354-0.088c0.119,0,0.237,0.031,0.342,0.088l5.886,3.186l-1.239-6.707
		c-0.044-0.248,0.031-0.502,0.207-0.68l4.746-4.815l-6.536-0.854c-0.244-0.039-0.451-0.196-0.559-0.421l-2.898-6.032L9.627,8.974z"
		/>
	<path fill="#E95420" d="M24.599,9.569c-0.079-0.253-0.287-0.434-0.544-0.477l-7.567-1.114L13.079,0.88
		c-0.112-0.238-0.348-0.388-0.603-0.388l0,0c-0.254,0-0.487,0.15-0.603,0.394L8.513,8.004L0.943,9.171
		C0.689,9.21,0.48,9.394,0.4,9.646c-0.08,0.253-0.009,0.533,0.175,0.713l5.493,5.517l-1.271,7.816
		c-0.045,0.262,0.059,0.525,0.269,0.682c0.114,0.086,0.254,0.135,0.393,0.135c0.11,0,0.215-0.029,0.314-0.082l6.758-3.713l6.78,3.67
		c0.1,0.051,0.201,0.076,0.309,0.076l0,0c0.368,0,0.671-0.314,0.671-0.693c0-0.059-0.004-0.111-0.021-0.162l-1.309-7.768l5.458-5.55
		C24.616,10.1,24.681,9.821,24.599,9.569z M17.777,15.098c-0.16,0.16-0.23,0.391-0.188,0.619l1.14,6.779l-5.889-3.188
		c-0.196-0.107-0.428-0.102-0.629,0l-5.866,3.223l1.101-6.787c0.034-0.227-0.035-0.455-0.194-0.615l-4.761-4.79l6.57-1.014
		C9.28,9.288,9.47,9.15,9.565,8.944l2.917-6.18l2.959,6.163c0.1,0.208,0.288,0.347,0.507,0.383l6.574,0.97L17.777,15.098z"/>
</g>
</svg>
