<?xml version="1.0" encoding="utf-8"?>
<!-- Generator: Adobe Illustrator 16.0.0, SVG Export Plug-In . SVG Version: 6.00 Build 0)  -->
<!DOCTYPE svg PUBLIC "-//W3C//DTD SVG 1.1//EN" "http://www.w3.org/Graphics/SVG/1.1/DTD/svg11.dtd">
<svg version="1.1" id="Layer_1" xmlns="http://www.w3.org/2000/svg" xmlns:xlink="http://www.w3.org/1999/xlink" x="0px" y="0px"
	 width="18px" height="18px" viewBox="0 0 18 18" enable-background="new 0 0 18 18" xml:space="preserve">
<path fill="#FFFFFF" d="M6.537,9.906C5.53,9.889,4.771,9.561,4.211,8.927C2.99,7.548,3.188,5.237,3.214,4.979
	c0.079-1.708,0.899-2.521,1.572-2.901C5.456,1.696,6.15,1.639,6.504,1.639c0.695,0.012,1.272,0.164,1.77,0.451
	c0.665,0.38,1.474,1.192,1.552,2.894c0.011,0.097,0.255,2.53-0.996,3.943C8.267,9.561,7.506,9.889,6.57,9.906H6.568H6.537z
	 M6.5,2.68c-0.646,0-2.158,0.23-2.256,2.366C4.238,5.099,4.041,7.18,4.985,8.24c0.368,0.417,0.865,0.623,1.52,0.628
	C7.188,8.863,7.687,8.657,8.056,8.24C9.012,7.163,8.799,5.1,8.797,5.08C8.7,3.027,7.338,2.697,6.535,2.68L6.5,2.58V2.68z"/>
<path fill="#FFFFFF" d="M6.47,9.807c0.014,0,0.031,0,0.05,0c0.005,0,0.012,0,0.018,0c0.01,0,0.021,0,0.031,0
	C7.476,9.789,8.21,9.472,8.755,8.861C9.947,7.514,9.75,5.208,9.727,4.989C9.65,3.336,8.869,2.546,8.224,2.177
	C7.744,1.9,7.181,1.751,6.557,1.739H6.534c-0.002,0-0.009,0-0.012,0H6.504c-0.344,0-1.021,0.056-1.668,0.425
	c-0.651,0.368-1.445,1.16-1.522,2.825c-0.022,0.219-0.22,2.525,0.973,3.872C4.827,9.472,5.561,9.789,6.47,9.807z M4.141,5.066
	c0-0.009,0.003-0.019,0.003-0.025C4.247,2.818,5.824,2.58,6.5,2.58h0.012c0.007,0,0.017,0,0.025,0
	c0.837,0.018,2.259,0.359,2.357,2.461c0,0.009,0,0.018,0.002,0.025C8.9,5.088,9.117,7.195,8.13,8.306
	C7.742,8.746,7.22,8.962,6.534,8.968c-0.005,0-0.009,0-0.014,0l0,0c-0.007,0-0.011,0-0.016,0C5.821,8.962,5.297,8.746,4.91,8.306
	C3.927,7.202,4.138,5.084,4.141,5.066z"/>
<path fill="#FFFFFF" d="M6.529,17.008c-3.839,0-6.086-1.483-6.108-1.498c-0.092-0.059-0.161-0.143-0.199-0.241
	c-0.174-0.44-0.168-1.281-0.165-1.445c0.023-0.722,0.067-2.203,1.475-2.688c1.432-0.362,2.566-1.157,2.577-1.165
	c0.089-0.063,0.192-0.096,0.298-0.096c0.169,0,0.329,0.083,0.426,0.222c0.08,0.112,0.111,0.25,0.087,0.387s-0.1,0.256-0.214,0.336
	c-0.338,0.227-1.487,0.952-2.862,1.307c-0.652,0.232-0.729,0.939-0.75,1.643c-0.009,0.35,0.013,0.774,0.061,1.013
	c0.323,0.143,2.331,1.193,5.37,1.193c2.966,0,4.896-0.962,5.417-1.257c-0.003-0.169,0.018-0.583,0.014-0.87
	c-0.021-0.748-0.097-1.483-0.76-1.721c-1.559-0.401-2.803-1.27-2.855-1.306c-0.114-0.08-0.19-0.199-0.214-0.337
	c-0.023-0.136,0.007-0.273,0.086-0.386c0.097-0.138,0.256-0.22,0.425-0.22c0.107,0,0.21,0.032,0.298,0.094
	c0.122,0.084,1.222,0.821,2.54,1.157c1.45,0.491,1.493,1.976,1.511,2.61c0.005,0.127,0.025,1.062-0.15,1.527
	c-0.041,0.099-0.109,0.182-0.197,0.242C12.226,15.766,10.043,17.008,6.529,17.008z"/>
<path fill="#FFFFFF" d="M12.891,13.83c0-0.005,0-0.007,0-0.009c0-0.024-0.004-0.05-0.004-0.078c-0.018-0.612-0.059-2.05-1.402-2.509
	c-0.012-0.004-0.023-0.006-0.033-0.008c-1.398-0.356-2.561-1.164-2.573-1.172c-0.189-0.133-0.451-0.087-0.584,0.102
	s-0.086,0.45,0.104,0.583c0.053,0.037,1.288,0.896,2.831,1.294c0.723,0.258,0.805,1.029,0.824,1.734c0,0.029,0,0.054,0.002,0.079
	c0.004,0.279-0.016,0.709-0.064,0.958c-0.502,0.284-2.471,1.27-5.466,1.27c-2.982,0-4.962-0.987-5.468-1.273
	c-0.05-0.247-0.072-0.679-0.065-0.959c0-0.022,0.002-0.05,0.002-0.076c0.022-0.707,0.103-1.479,0.825-1.736
	c1.544-0.398,2.778-1.259,2.83-1.292c0.19-0.133,0.236-0.395,0.103-0.583c-0.133-0.189-0.394-0.236-0.583-0.104
	C4.157,10.061,3,10.867,1.596,11.223c-0.012,0.004-0.021,0.006-0.031,0.008c-1.345,0.463-1.386,1.9-1.404,2.51
	c0,0.027,0,0.052-0.004,0.079c0,0.002,0,0.004,0,0.006c-0.003,0.164-0.006,0.99,0.158,1.407c0.031,0.08,0.087,0.146,0.161,0.194
	c0.093,0.063,2.322,1.481,6.052,1.481c3.729,0,5.958-1.423,6.053-1.481c0.07-0.048,0.127-0.114,0.16-0.194
	C12.898,14.819,12.895,13.991,12.891,13.83z"/>
<path fill="#FFFFFF" d="M13.394,7.452c-0.722-0.012-1.272-0.245-1.685-0.711c-0.861-0.974-0.731-2.617-0.714-2.802
	c0.057-1.222,0.649-1.808,1.138-2.084c0.482-0.275,0.982-0.316,1.237-0.316c0.494,0.009,0.91,0.116,1.273,0.326
	c0.481,0.275,1.067,0.859,1.124,2.083c0.018,0.182,0.146,1.823-0.713,2.793c-0.408,0.459-0.959,0.699-1.637,0.711h-0.002H13.394z
	 M13.368,2.478c-0.513,0-1.381,0.198-1.442,1.522c-0.002,0.02-0.139,1.422,0.482,2.12c0.23,0.262,0.545,0.391,0.964,0.396
	c0.435-0.004,0.748-0.13,0.982-0.395c0.621-0.698,0.484-2.076,0.482-2.09c-0.047-1.014-0.534-1.534-1.447-1.553l-0.021-0.1V2.478z"
	/>
<path fill="#FFFFFF" d="M13.394,7.352c-0.69-0.012-1.217-0.233-1.609-0.678c-0.855-0.966-0.696-2.654-0.689-2.726
	c0.055-1.182,0.621-1.743,1.087-2.007c0.464-0.264,0.943-0.303,1.188-0.303c0.475,0.009,0.875,0.111,1.224,0.312
	c0.46,0.263,1.02,0.823,1.074,2.001c0.002,0.024,0.183,1.738-0.688,2.722c-0.389,0.438-0.915,0.666-1.563,0.678H13.394z
	 M13.368,2.378c-0.441,0-1.475,0.158-1.542,1.618c-0.001,0.009-0.146,1.457,0.508,2.191c0.249,0.284,0.589,0.424,1.037,0.429
	c0.468-0.005,0.804-0.141,1.059-0.429c0.652-0.734,0.509-2.155,0.507-2.168c-0.062-1.329-0.874-1.626-1.545-1.641H13.368z"/>
<g>
	<path fill="#FFFFFF" d="M10.015,8.773c0.137-0.269,0.249-0.557,0.345-0.88c0.611-0.256,0.841-0.434,0.865-0.453
		c0.084-0.059,0.176-0.087,0.271-0.087c0.152,0,0.296,0.074,0.385,0.199c0.072,0.101,0.101,0.225,0.079,0.35
		c-0.021,0.124-0.09,0.231-0.193,0.304c-0.258,0.173-0.64,0.43-1.577,0.671l-0.262,0.12L10.015,8.773z"/>
	<path fill="#FFFFFF" d="M10.104,8.818c0.023-0.011,0.035-0.031,0.061-0.04c0.926-0.238,1.301-0.492,1.545-0.656
		c0.081-0.057,0.136-0.142,0.152-0.238c0.017-0.098-0.005-0.195-0.062-0.275c-0.07-0.098-0.184-0.157-0.304-0.157
		c-0.076,0-0.148,0.023-0.209,0.065c-0.051,0.041-0.296,0.218-0.832,0.404C10.366,8.223,10.253,8.524,10.104,8.818z"/>
	<path fill="#FFFFFF" d="M13.533,12.161c-0.085-0.248-0.203-0.484-0.35-0.704l-0.104-0.155l0.305,0.004
		c1.931,0,3.241-0.62,3.598-0.81c0.006-0.117,0.03-0.313,0.028-0.541c-0.02-0.695-0.133-0.968-0.449-1.081
		c-0.644-0.166-1.171-0.39-1.479-0.628c-0.114-0.082-0.186-0.189-0.207-0.315c-0.021-0.122,0.007-0.246,0.078-0.348
		c0.087-0.124,0.23-0.198,0.384-0.198c0.097,0,0.189,0.029,0.269,0.083c0.062,0.052,0.369,0.292,1.213,0.507
		c1.076,0.363,1.111,1.477,1.124,1.896c0.003,0.078,0.019,0.758-0.111,1.1c-0.038,0.091-0.099,0.165-0.176,0.218
		c-0.166,0.103-1.653,0.982-4.024,1.041l-0.073,0.002L13.533,12.161z"/>
	<path fill="#FFFFFF" d="M17.843,9.875c-0.013-0.4-0.045-1.464-1.049-1.804c-0.835-0.213-1.168-0.455-1.245-0.521
		c-0.063-0.043-0.136-0.066-0.212-0.066c-0.12,0-0.233,0.058-0.302,0.155c-0.057,0.081-0.078,0.178-0.062,0.274
		c0.017,0.098,0.071,0.183,0.17,0.253c0.297,0.23,0.809,0.447,1.45,0.613c0.408,0.146,0.498,0.54,0.516,1.174
		c0.002,0.16-0.007,0.391-0.081,0.63c-0.362,0.193-1.695,0.821-3.645,0.821c-0.041,0-0.077-0.004-0.117-0.004
		c0.158,0.236,0.276,0.48,0.361,0.728c2.268-0.057,3.704-0.859,3.971-1.024c0.062-0.042,0.109-0.101,0.139-0.17
		C17.839,10.667,17.851,10.144,17.843,9.875z"/>
</g>
</svg>
