<?xml version="1.0" encoding="utf-8"?>
<!-- Generator: Adobe Illustrator 16.0.0, SVG Export Plug-In . SVG Version: 6.00 Build 0)  -->
<!DOCTYPE svg PUBLIC "-//W3C//DTD SVG 1.1//EN" "http://www.w3.org/Graphics/SVG/1.1/DTD/svg11.dtd">
<svg version="1.1" id="Layer_1" xmlns="http://www.w3.org/2000/svg" xmlns:xlink="http://www.w3.org/1999/xlink" x="0px" y="0px"
	 width="18px" height="18px" viewBox="0 0 18 18" enable-background="new 0 0 18 18" xml:space="preserve">
<g>
	<g>
		<path fill="#FFFFFF" d="M9,18c-2.405,0-4.666-0.936-6.365-2.635C0.936,13.664-0.001,11.404-0.001,9s0.937-4.665,2.636-6.365
			C4.335,0.936,6.596,0,9,0s4.664,0.937,6.365,2.636C17.064,4.336,18,6.597,18,9c0,2.404-0.936,4.664-2.635,6.365
			C13.665,17.064,11.405,18,9,18z M4.942,15.904C6.168,16.629,7.57,17.012,9,17.012c4.417,0,8.011-3.594,8.011-8.011
			c0-0.428-0.035-0.863-0.104-1.294l-0.131,0.025l-0.014,0.256c-0.07,0.294-0.284,0.53-0.571,0.632
			c-0.098,0.035-0.199,0.052-0.304,0.052c-0.195,0-0.382-0.063-0.54-0.181l-0.476-0.356L14.505,8.37
			c0.212,0.097,0.38,0.306,0.443,0.557c0.072,0.287,0,0.59-0.191,0.813l-0.37,0.426c-0.171,0.195-0.419,0.309-0.681,0.309
			c-0.175,0-0.345-0.051-0.49-0.145l-0.883-0.57l-0.054,0.338l0.491,0.408c0.323,0.303,0.381,0.787,0.137,1.154l-0.844,1.283
			l-0.06,1.791c-0.011,0.232-0.107,0.447-0.272,0.607l-1.126,1.105c-0.166,0.164-0.392,0.256-0.63,0.256
			c-0.16,0-0.313-0.041-0.455-0.123l-0.731-0.428c-0.217-0.127-0.372-0.34-0.425-0.584l-0.335-1.535l-0.3-0.803L6.31,13.107
			c-0.291-0.023-0.554-0.189-0.703-0.443l-0.838-1.449c-0.102-0.176-0.142-0.385-0.112-0.586l0.211-1.403
			c0.036-0.234,0.16-0.442,0.349-0.585l1.288-0.971C6.66,7.552,6.853,7.487,7.048,7.487c0.12,0,0.237,0.023,0.348,0.07l1.248,0.52
			l1.703,0.182l1.027-0.763l-0.078-0.173L8.155,7.199C8.017,7.191,7.879,7.151,7.757,7.082C7.438,6.899,7.263,6.546,7.311,6.183
			c0.046-0.364,0.305-0.66,0.66-0.756l0.965-0.26l1.144-1.092c0.142-0.136,0.329-0.222,0.525-0.242l1.719-0.177
			c0.229-0.956,0.37-1.533,0.421-1.736c-0.516-0.275-1.063-0.492-1.628-0.646l-0.315,0.365c-0.105,0.121-0.237,0.217-0.385,0.276
			L9.475,2.292L8.004,4.009C7.721,4.335,7.361,4.36,7.257,4.36c-0.307,0-0.583-0.128-0.774-0.35
			C6.282,3.775,6.201,3.467,6.261,3.164C6.269,3.136,6.32,2.938,6.367,2.854l0.664-1.25l-0.07-0.351
			C6.096,1.48,5.283,1.849,4.542,2.349l0.043,1.709c0,0.635-0.318,1.22-0.851,1.565L2.883,6.175
			c-0.097,0.063-0.18,0.144-0.247,0.241L0.974,8.852L0.989,9c0,0.587,0.064,1.171,0.189,1.74h0.653c0.366,0,0.703,0.184,0.901,0.492
			l1.018,1.584c0.041,0.039,1.004,0.918,1.004,0.918c0.256,0.234,0.383,0.58,0.341,0.924L4.942,15.904z M5.813,9.431l-0.177,1.345
			l0.828,1.391l1.406,0.086c0.344,0.027,0.645,0.256,0.767,0.582l0.322,0.865c0.01,0.025,0.136,0.584,0.372,1.656l0.63,0.34
			l1.079-1.059l0.046-1.777c0.006-0.16,0.058-0.32,0.148-0.461l0.806-1.221l-0.464-0.434c-0.22-0.207-0.322-0.508-0.275-0.806
			l0.078-0.469c0.05-0.302,0.246-0.556,0.523-0.679c0.117-0.051,0.24-0.077,0.366-0.077c0.172,0,0.341,0.049,0.487,0.143
			l0.935,0.603l0.241-0.278c-0.304-0.156-0.48-0.43-0.499-0.75c-0.023-0.359,0.161-0.686,0.48-0.853l0.595-0.311
			c0.127-0.067,0.271-0.103,0.417-0.103c0.195,0,0.388,0.063,0.542,0.179l0.369,0.277l0.048-0.192
			c0.084-0.339,0.36-0.602,0.703-0.668l0.1-0.02c-0.507-1.721-1.588-3.232-3.062-4.278l-0.356,1.486
			c-0.089,0.371-0.405,0.646-0.786,0.685l-1.776,0.183L9.577,5.907C9.469,6.01,9.336,6.084,9.194,6.123L8.632,6.274l2.793,0.114
			c0.34,0.018,0.637,0.222,0.775,0.532l0.105,0.238c0.175,0.39,0.05,0.852-0.296,1.1l-1.146,0.821
			c-0.155,0.111-0.336,0.169-0.526,0.169L8.511,9.055c-0.085-0.01-0.169-0.031-0.25-0.064L7.057,8.487L5.813,9.431z M1.471,11.738
			c0.508,1.393,1.386,2.609,2.552,3.535l0.091-0.738l-1.017-0.971c-0.071-0.066-0.131-0.137-0.18-0.215L1.9,11.768L1.471,11.738z
			 M3.595,3.092c-1.019,0.931-1.77,2.09-2.2,3.387l0.424-0.621c0.143-0.208,0.32-0.38,0.526-0.513l0.851-0.553
			c0.25-0.163,0.399-0.437,0.399-0.734V3.092z M8.002,1.397c0.046,0.228,0.012,0.465-0.098,0.67L7.24,3.317l1.478-1.665
			c0.106-0.123,0.241-0.22,0.389-0.279l0.824-0.331C9.624,1.008,9.312,0.99,9,0.99c-0.357,0-0.716,0.023-1.067,0.07L8.002,1.397z"/>
		<path fill="#FFFFFF" d="M15.295,2.706C13.612,1.024,11.377,0.099,9,0.099c-2.378,0-4.613,0.926-6.294,2.607
			C1.024,4.387,0.098,6.623,0.098,9c0,2.376,0.926,4.613,2.607,6.294S6.622,17.902,9,17.902c2.377,0,4.612-0.926,6.295-2.607
			c1.68-1.682,2.606-3.918,2.606-6.294C17.901,6.623,16.975,4.387,15.295,2.706z M13.172,3.925l0.392-1.626
			c1.559,1.065,2.728,2.658,3.248,4.519l-0.205,0.04c-0.307,0.06-0.552,0.292-0.627,0.595l-0.08,0.32
			c-0.002,0.004-0.002,0.006-0.007,0.008c-0.006,0.002-0.007,0.001-0.011-0.002l-0.475-0.356c-0.246-0.185-0.583-0.211-0.854-0.068
			l-0.595,0.311c-0.283,0.149-0.448,0.439-0.428,0.76c0.019,0.32,0.218,0.59,0.521,0.702l0.025,0.012
			c0.004,0.001,0.008,0.001,0.008,0.007c0.001,0.005,0,0.008-0.002,0.011l-0.369,0.424c-0.003,0.003-0.011,0.005-0.014,0.001
			L12.703,8.94c-0.229-0.146-0.511-0.169-0.76-0.059c-0.249,0.11-0.422,0.336-0.467,0.604l-0.077,0.468
			c-0.043,0.265,0.048,0.533,0.245,0.718l0.518,0.484c0.004,0.004,0.004,0.01,0.002,0.016l-0.847,1.281
			c-0.078,0.121-0.127,0.264-0.133,0.41l-0.071,1.836c-0.002,0.002-0.002,0.006-0.004,0.008l-1.125,1.104
			c-0.006,0.004-0.012,0.004-0.015,0.002l-0.731-0.428c-0.003-0.002-0.004-0.004-0.005-0.008c0,0-0.354-1.609-0.368-1.645
			l-0.322-0.865c-0.108-0.287-0.375-0.492-0.683-0.518l-1.475-0.129c-0.004,0-0.006-0.002-0.009-0.006L5.539,10.77
			c-0.001-0.002-0.002-0.006-0.001-0.008l0.211-1.403c0-0.003,0.002-0.005,0.005-0.008L7.041,8.38
			c0.002-0.003,0.007-0.003,0.011-0.002L8.3,8.899c0.07,0.029,0.146,0.049,0.222,0.057l1.728,0.188
			c0.198,0.021,0.395-0.031,0.556-0.146l1.146-0.821c0.309-0.221,0.419-0.633,0.264-0.979L12.109,6.96
			c-0.123-0.276-0.388-0.458-0.69-0.473L8.204,6.31c-0.001,0-0.004-0.001-0.005-0.001C8.196,6.307,8.194,6.305,8.194,6.305l0,0
			c-0.001-0.003,0-0.012,0.001-0.015c0,0,0.002-0.001,0.007-0.002l0.966-0.26c0.127-0.034,0.245-0.101,0.341-0.192l1.181-1.114
			c0.001-0.001,0.005-0.002,0.007-0.003l1.776-0.183C12.813,4.5,13.093,4.256,13.172,3.925z M7.153,3.271l0.664-1.25
			c0.099-0.185,0.129-0.399,0.087-0.604l-0.09-0.44C8.201,0.92,8.597,0.891,9,0.891c0.405,0,0.806,0.03,1.197,0.088
			c0,0-0.097,0.104-0.112,0.11L9.144,1.466C9.009,1.52,8.889,1.606,8.793,1.717L7.328,3.43c-0.02,0.024-0.049,0.038-0.08,0.039
			C7.202,3.471,7.173,3.446,7.159,3.43C7.107,3.372,7.148,3.282,7.153,3.271z M3.695,2.871v1.187c0,0.332-0.167,0.637-0.445,0.817
			L2.399,5.428C2.201,5.556,2.034,5.72,1.901,5.914L1.128,7.046C1.537,5.4,2.45,3.95,3.695,2.871z M4.212,14.549L4.1,15.457
			c-1.268-0.963-2.245-2.293-2.773-3.828h0.504c0.062,0,0.118,0.031,0.152,0.084L3,13.297c0.046,0.072,0.101,0.137,0.163,0.193
			l0.99,0.902C4.197,14.434,4.218,14.49,4.212,14.549z M9,17.109c-1.521,0-2.946-0.42-4.165-1.152l0.161-1.311
			c0.039-0.313-0.077-0.625-0.309-0.838c0,0-1.012-0.924-1.021-0.939l-1.018-1.584c-0.18-0.279-0.486-0.447-0.818-0.447H1.1
			C0.962,10.246,0.89,9.633,0.89,9c0-0.068,0.001-0.136,0.002-0.205L2.555,6.36C2.627,6.252,2.72,6.162,2.829,6.091l0.852-0.552
			c0.504-0.326,0.806-0.88,0.806-1.481V2.266C5.254,1.749,6.115,1.361,7.038,1.13l0.092,0.445C7.134,1.601,7.13,1.627,7.119,1.65
			L6.454,2.901C6.412,2.978,6.359,3.183,6.359,3.183c-0.054,0.274,0.019,0.551,0.2,0.763c0.173,0.202,0.42,0.315,0.685,0.315
			c0.012,0,0.396,0.019,0.686-0.316l1.465-1.713c0.013-0.013,0.027-0.023,0.044-0.031l0.94-0.377
			c0.133-0.054,0.253-0.141,0.347-0.25l0.356-0.412c0.625,0.165,1.221,0.404,1.776,0.707c-0.007,0.021-0.456,1.87-0.456,1.87
			c0,0.005-0.006,0.008-0.01,0.009l-1.777,0.183c-0.175,0.019-0.341,0.094-0.469,0.215L8.967,5.26
			C8.965,5.262,8.963,5.263,8.961,5.263l-0.965,0.26C7.681,5.608,7.45,5.872,7.409,6.195c-0.042,0.324,0.114,0.638,0.397,0.8
			C7.914,7.057,8.037,7.093,8.161,7.1l3.216,0.176c0.004,0,0.008,0.003,0.01,0.006l0.106,0.238c0.002,0.005,0,0.011-0.005,0.014
			l-1.145,0.822c-0.002,0.001-0.006,0.002-0.008,0.002l-1.73-0.189L7.356,7.648c-0.262-0.11-0.565-0.071-0.793,0.1L5.276,8.72
			c-0.169,0.128-0.279,0.313-0.31,0.521l-0.211,1.403c-0.027,0.18,0.009,0.365,0.1,0.521l0.838,1.447
			c0.131,0.225,0.365,0.375,0.625,0.396l1.475,0.127c0.004,0,0.008,0.004,0.01,0.008l0.323,0.867l0.335,1.535
			c0.048,0.217,0.186,0.406,0.379,0.521l0.731,0.426c0.127,0.074,0.265,0.111,0.405,0.111c0.206,0,0.408-0.078,0.561-0.23
			l1.126-1.104c0.148-0.145,0.233-0.336,0.242-0.541l0.072-1.836c0-0.002,0-0.004,0.004-0.006l0.845-1.283
			c0.216-0.326,0.164-0.76-0.122-1.027l-0.521-0.484c-0.001-0.004-0.003-0.006-0.001-0.01l0.076-0.47
			c0.002-0.003,0.002-0.007,0.006-0.009c0.006-0.002,0.008-0.002,0.012,0l0.994,0.641c0.334,0.217,0.782,0.154,1.043-0.145
			l0.368-0.426c0.172-0.199,0.236-0.468,0.172-0.724c-0.064-0.254-0.249-0.463-0.497-0.554l-0.027-0.011
			c-0.004-0.001-0.006-0.002-0.006-0.002c-0.002-0.003-0.002-0.013,0-0.016c0,0,0.002-0.001,0.004-0.003l0.594-0.31
			c0.004-0.002,0.008-0.002,0.011,0.001l0.477,0.356c0.217,0.162,0.496,0.204,0.751,0.114c0.254-0.091,0.445-0.3,0.509-0.563
			l0.079-0.321c0.002-0.003,0.006-0.008,0.012-0.009l0.23-0.044c0.079,0.458,0.121,0.93,0.121,1.41
			C17.109,13.473,13.472,17.109,9,17.109z"/>
	</g>
</g>
</svg>
