<?xml version="1.0" encoding="utf-8"?>
<!-- Generator: Adobe Illustrator 16.0.0, SVG Export Plug-In . SVG Version: 6.00 Build 0)  -->
<!DOCTYPE svg PUBLIC "-//W3C//DTD SVG 1.1//EN" "http://www.w3.org/Graphics/SVG/1.1/DTD/svg11.dtd">
<svg version="1.1" id="Layer_1" xmlns="http://www.w3.org/2000/svg" xmlns:xlink="http://www.w3.org/1999/xlink" x="0px" y="0px"
	 width="30px" height="20px" viewBox="0 0 30 20" enable-background="new 0 0 30 20" xml:space="preserve">
<g>
	<g>
		<path fill="#E95420" d="M15,18.954c-7.805,0-13.982-8.318-14.242-8.672c-0.123-0.168-0.123-0.396,0-0.564
			C1.018,9.364,7.203,1.046,15,1.046c7.817,0,13.983,8.318,14.242,8.672c0.123,0.169,0.123,0.396-0.001,0.565
			C28.983,10.637,22.81,18.954,15,18.954z M15,2.002c-6.197,0-11.514,5.878-12.996,7.68L1.743,10l0.262,0.317
			C3.491,12.119,8.818,17.998,15,17.998c6.195,0,11.513-5.878,12.995-7.68L28.257,10l-0.262-0.317
			C26.51,7.881,21.182,2.002,15,2.002z"/>
	</g>
</g>
<g>
	<g>
		<path fill="#E95420" d="M15,15.368c-2.96,0-5.368-2.408-5.368-5.368S12.04,4.632,15,4.632S20.368,7.04,20.368,10
			S17.96,15.368,15,15.368z M15,5.588c-2.433,0-4.412,1.979-4.412,4.412s1.979,4.412,4.412,4.412s4.412-1.979,4.412-4.412
			S17.433,5.588,15,5.588z"/>
	</g>
</g>
</svg>
