<?xml version="1.0" encoding="utf-8"?>
<!-- Generator: Adobe Illustrator 16.0.0, SVG Export Plug-In . SVG Version: 6.00 Build 0)  -->
<!DOCTYPE svg PUBLIC "-//W3C//DTD SVG 1.1//EN" "http://www.w3.org/Graphics/SVG/1.1/DTD/svg11.dtd">
<svg version="1.1" id="Layer_1" xmlns="http://www.w3.org/2000/svg" xmlns:xlink="http://www.w3.org/1999/xlink" x="0px" y="0px"
	 width="18px" height="18px" viewBox="0 0 18 18" enable-background="new 0 0 18 18" xml:space="preserve">
<path fill="#FFFFFF" d="M9.009,0c-4.976,0-9.01,4.034-9.01,9.011s4.034,9.011,9.01,9.011c4.977,0,9.011-4.034,9.011-9.011
	S13.985,0,9.009,0z M9.009,17.021c-4.417,0-8.01-3.594-8.01-8.011S4.592,1,9.009,1s8.011,3.594,8.011,8.011
	S13.426,17.021,9.009,17.021z"/>
<g>
	<path fill="#FFFFFF" d="M9.022,10.813h0.031h0.001c0.933-0.016,1.691-0.345,2.252-0.977c1.211-1.364,1.023-3.688,0.999-3.945
		c-0.08-1.7-0.888-2.509-1.55-2.889c-0.499-0.286-1.075-0.437-1.769-0.449c-0.354,0-1.047,0.057-1.714,0.437
		C6.602,3.372,5.785,4.185,5.706,5.888C5.68,6.147,5.489,8.468,6.703,9.837C7.261,10.469,8.018,10.798,9.022,10.813z M9.021,3.557
		c0.814,0.019,2.194,0.355,2.292,2.427c0.002,0.021,0.218,2.102-0.749,3.19c-0.377,0.424-0.882,0.633-1.575,0.639
		C8.325,9.807,7.821,9.598,7.448,9.173C6.492,8.1,6.693,6.004,6.7,5.953C6.799,3.79,8.331,3.557,8.985,3.557v-0.08L9.021,3.557z"/>
	<path fill="#FFFFFF" d="M2.547,15.047c0.385,0,0.721,0.075,1.014,0.2c-0.021-0.227-0.03-0.496-0.024-0.734
		c0.022-0.714,0.1-1.431,0.768-1.669c1.382-0.354,2.532-1.084,2.868-1.311c0.11-0.077,0.183-0.192,0.206-0.324
		c0.022-0.132-0.007-0.264-0.084-0.372c-0.094-0.134-0.248-0.213-0.41-0.213c-0.103,0-0.202,0.031-0.286,0.091
		c-0.048,0.033-1.186,0.815-2.595,1.176c-1.399,0.479-1.444,1.955-1.467,2.68c-0.001,0.043-0.002,0.237,0.009,0.477
		C2.546,15.047,2.546,15.047,2.547,15.047z"/>
	<path fill="#FFFFFF" d="M15.48,14.574c-0.001-0.038-0.001-0.075-0.002-0.098c-0.021-0.63-0.067-2.106-1.502-2.594
		c-1.396-0.356-2.545-1.155-2.558-1.165c-0.084-0.06-0.183-0.091-0.286-0.091c-0.163,0-0.316,0.079-0.411,0.213
		c-0.157,0.226-0.102,0.537,0.122,0.695c0.013,0.01,1.278,0.903,2.862,1.31c0.676,0.24,0.753,0.957,0.778,1.747
		c0.001,0.209-0.008,0.48-0.017,0.686c0.141-0.021,0.282-0.043,0.438-0.043c0.082,0,0.154,0.017,0.231,0.023
		C15.216,15.012,15.333,14.783,15.48,14.574z"/>
</g>
</svg>
