<?xml version="1.0" encoding="utf-8"?>
<!-- Generator: Adobe Illustrator 16.0.0, SVG Export Plug-In . SVG Version: 6.00 Build 0)  -->
<!DOCTYPE svg PUBLIC "-//W3C//DTD SVG 1.1//EN" "http://www.w3.org/Graphics/SVG/1.1/DTD/svg11.dtd">
<svg version="1.1" id="Layer_1" xmlns="http://www.w3.org/2000/svg" xmlns:xlink="http://www.w3.org/1999/xlink" x="0px" y="0px"
	 width="18px" height="18px" viewBox="0 0 18 18" enable-background="new 0 0 18 18" xml:space="preserve">
<g>
	<path fill="#FFFFFF" d="M8.999,0.077c-4.898,0-8.883,3.986-8.883,8.884c0,4.899,3.985,8.884,8.883,8.884
		c4.899,0,8.885-3.985,8.885-8.884C17.884,4.063,13.898,0.077,8.999,0.077z M1.286,8.96c0-4.253,3.46-7.712,7.713-7.712
		c4.254,0,7.715,3.46,7.715,7.713c0,1.339-0.36,2.626-0.971,3.795c-0.135,0.236-0.271,0.472-0.428,0.691
		c-0.176-0.912-0.658-1.514-1.446-1.783c-1.28-0.325-2.347-1.039-2.465-1.121c-0.099-0.068-0.215-0.105-0.336-0.105
		c-0.19,0-0.369,0.094-0.48,0.25c-0.183,0.265-0.119,0.629,0.14,0.812c0.012,0.009,1.252,0.89,2.818,1.291
		c0.602,0.214,0.67,0.886,0.693,1.611l0.012,0.192c-1.437,1.341-3.303,2.081-5.252,2.081s-3.814-0.74-5.236-2.046
		c-0.002-0.101-0.004-0.204-0.001-0.299c0.02-0.662,0.089-1.326,0.675-1.536c1.362-0.349,2.509-1.078,2.829-1.294
		c0.128-0.09,0.214-0.225,0.241-0.38c0.026-0.154-0.009-0.31-0.098-0.435c-0.109-0.156-0.289-0.25-0.48-0.25
		c-0.123,0-0.239,0.037-0.334,0.105c-0.046,0.032-1.14,0.784-2.506,1.136c-0.625,0.213-1.035,0.644-1.221,1.276
		c-0.06,0.16-0.102,0.322-0.132,0.482C1.789,12.114,1.286,10.569,1.286,8.96z"/>
	<path fill="#FFFFFF" d="M9.017,10.352h0.032H9.05c0.938-0.015,1.702-0.346,2.267-0.985c1.211-1.362,1.023-3.661,0.998-3.917
		c-0.08-1.7-0.894-2.513-1.561-2.897c-0.508-0.291-1.086-0.438-1.774-0.45c-0.355,0-1.049,0.056-1.72,0.438
		C6.586,2.926,5.765,3.742,5.686,5.442C5.66,5.7,5.47,8,6.682,9.368C7.253,10.017,8.017,10.338,9.017,10.352z M8.946,3.235
		l0.036,0.041l0.032,0c0.758,0.018,2.046,0.339,2.139,2.28c0.02,0.207,0.162,2.057-0.704,3.035c-0.354,0.397-0.818,0.584-1.464,0.59
		C8.368,9.175,7.9,8.982,7.555,8.59C6.647,7.571,6.848,5.544,6.85,5.521C6.915,4.125,7.619,3.355,8.946,3.235z"/>
</g>
</svg>
