<?xml version="1.0" encoding="utf-8"?>
<!-- Generator: Adobe Illustrator 16.0.0, SVG Export Plug-In . SVG Version: 6.00 Build 0)  -->
<!DOCTYPE svg PUBLIC "-//W3C//DTD SVG 1.1//EN" "http://www.w3.org/Graphics/SVG/1.1/DTD/svg11.dtd">
<svg version="1.1" id="Layer_1" xmlns="http://www.w3.org/2000/svg" xmlns:xlink="http://www.w3.org/1999/xlink" x="0px" y="0px"
	 width="18px" height="18px" viewBox="0 0 18 18" enable-background="new 0 0 18 18" xml:space="preserve">
<g>
	<path fill="#FFFFFF" d="M3.883,17.731c-0.112,0-0.225-0.038-0.316-0.107c-0.168-0.126-0.25-0.334-0.214-0.544l0.923-5.68
		L0.296,7.434C0.149,7.29,0.094,7.067,0.157,6.867c0.065-0.203,0.231-0.348,0.435-0.38l5.501-0.848l2.406-5.145
		C8.591,0.3,8.776,0.18,8.982,0.18c0.204,0,0.393,0.122,0.483,0.31l2.476,5.158l5.463,0.782c0.206,0.035,0.373,0.18,0.436,0.38
		c0.065,0.203,0.01,0.427-0.144,0.572l-3.965,4.033l0.964,5.602c0.014,0.04,0.016,0.086,0.016,0.125
		c0,0.306-0.241,0.555-0.537,0.555c-0.087,0-0.171-0.021-0.248-0.062l-4.927-2.667l-4.864,2.698
		C4.054,17.71,3.97,17.731,3.883,17.731z M6.911,6.393C6.836,6.554,6.686,6.668,6.508,6.698L1.733,7.433l3.488,3.397
		c0.125,0.125,0.183,0.309,0.155,0.49l-0.8,4.932l4.19-2.393c0.082-0.042,0.17-0.063,0.257-0.063c0.087,0,0.173,0.022,0.248,0.063
		l4.278,2.316l-0.9-4.875c-0.033-0.18,0.022-0.365,0.15-0.493l3.449-3.5l-4.75-0.621c-0.177-0.028-0.328-0.142-0.406-0.306
		L8.986,1.996L6.911,6.393z"/>
	<path fill="#FFFFFF" d="M17.792,6.825c-0.058-0.184-0.209-0.315-0.395-0.346l-5.501-0.81L9.42,0.511
		C9.338,0.338,9.167,0.229,8.982,0.229l0,0c-0.185,0-0.354,0.109-0.438,0.286L6.101,5.688L0.6,6.536
		C0.415,6.565,0.263,6.698,0.205,6.881C0.147,7.065,0.198,7.268,0.332,7.399l3.992,4.009l-0.923,5.681
		c-0.033,0.19,0.043,0.382,0.195,0.495c0.083,0.063,0.185,0.098,0.286,0.098c0.08,0,0.156-0.021,0.228-0.06l4.912-2.698l4.927,2.667
		c0.072,0.038,0.147,0.056,0.225,0.056l0,0c0.268,0,0.487-0.228,0.487-0.505c0-0.042-0.003-0.08-0.015-0.116l-0.951-5.646
		l3.967-4.034C17.804,7.211,17.852,7.009,17.792,6.825z M12.834,10.843c-0.116,0.117-0.167,0.285-0.137,0.45l0.828,4.927
		l-4.279-2.316c-0.142-0.078-0.311-0.074-0.457,0l-4.263,2.341l0.8-4.932c0.025-0.165-0.025-0.331-0.141-0.447l-3.46-3.481
		L6.5,6.648c0.159-0.027,0.297-0.127,0.366-0.277l2.12-4.491l2.151,4.479c0.072,0.151,0.209,0.252,0.368,0.278l4.778,0.705
		L12.834,10.843z"/>
</g>
</svg>
