<?xml version="1.0" encoding="utf-8"?>
<!-- Generator: Adobe Illustrator 16.0.0, SVG Export Plug-In . SVG Version: 6.00 Build 0)  -->
<!DOCTYPE svg PUBLIC "-//W3C//DTD SVG 1.1//EN" "http://www.w3.org/Graphics/SVG/1.1/DTD/svg11.dtd">
<svg version="1.1" id="Layer_1" xmlns="http://www.w3.org/2000/svg" xmlns:xlink="http://www.w3.org/1999/xlink" x="0px" y="0px"
	 width="20px" height="20px" viewBox="0 0 20 20" enable-background="new 0 0 20 20" xml:space="preserve">
<g>
	<path fill="#E95420" d="M18.014,18.658c-0.172,0-0.335-0.068-0.459-0.191L10,10.913l-7.556,7.555
		c-0.123,0.123-0.284,0.19-0.456,0.19s-0.334-0.067-0.456-0.189c-0.123-0.122-0.19-0.283-0.19-0.455
		c0-0.173,0.067-0.336,0.189-0.458L9.088,10L1.532,2.444C1.41,2.322,1.342,2.16,1.342,1.988S1.41,1.653,1.532,1.531
		s0.284-0.189,0.457-0.189c0.172,0,0.334,0.067,0.456,0.189L10,9.087l7.555-7.556c0.122-0.122,0.284-0.189,0.457-0.189
		c0.172,0,0.334,0.067,0.456,0.189s0.189,0.284,0.189,0.457s-0.067,0.334-0.188,0.456L10.913,10l7.556,7.556
		c0.122,0.122,0.189,0.284,0.189,0.457c0,0.172-0.067,0.333-0.188,0.454C18.346,18.591,18.185,18.658,18.014,18.658z"/>
</g>
</svg>
